<svg xmlns="http://www.w3.org/2000/svg" viewBox="0 0 300 80" role="img" aria-label="Water Softener St George Utah"><defs><clipPath id="d"><path d="M40 10C30.6 24.4 19.4 35.6 19.4 48.1a20.6 20.6 0 0 0 41.2 0C60.6 35.6 49.4 24.4 40 10z"/></clipPath></defs><rect x="0" y="0" width="80" height="80" rx="18" fill="#17496B"/><path d="M40 10C30.6 24.4 19.4 35.6 19.4 48.1a20.6 20.6 0 0 0 41.2 0C60.6 35.6 49.4 24.4 40 10z" fill="#E6EFF5"/><g clip-path="url(#d)"><path d="M12 70V57h10v-6h11.2v4H41v-8h10v9h7.5v14z" fill="#C2562B"/><path d="M12 70V63h56v7z" fill="#9C4120"/></g><text x="98" y="38" font-family="'DM Serif Display',Georgia,'Times New Roman',serif" font-size="30" letter-spacing="-0.9" fill="#17496B">Water Softener</text><text x="98" y="68" font-family="'DM Serif Display',Georgia,'Times New Roman',serif" font-size="30" letter-spacing="-0.9" fill="#C2562B">St George Utah</text></svg>
